<svg version="1.1" id="Layer_1" xmlns="http://www.w3.org/2000/svg" xmlns:xlink="http://www.w3.org/1999/xlink" x="0px" y="0px"
	 width="100%" viewBox="0 0 1024 1024" enable-background="new 0 0 1024 1024" xml:space="preserve">
<path fill="#000000" opacity="1.000000" stroke="none" 
	d="
M329.349182,186.317535 
	C359.702393,168.200348 389.620575,150.058426 419.866089,132.479645 
	C429.846771,126.678810 440.721222,126.825745 450.875275,132.823624 
	C469.666718,143.923538 488.379730,155.160416 506.988770,166.563248 
	C516.244507,172.234756 524.921021,172.095306 534.089111,166.224457 
	C551.906067,154.815323 569.857727,143.606033 587.970703,132.673721 
	C598.516968,126.308357 609.625305,126.317291 620.224182,132.669418 
	C678.956787,167.869049 738.048584,202.456497 797.225037,236.901443 
	C806.135803,242.088150 809.006287,250.649231 809.097839,260.236542 
	C809.290405,280.399506 809.338440,300.568665 809.044922,320.729401 
	C808.900879,330.620544 812.829163,337.575623 821.368835,342.390076 
	C838.928589,352.289795 856.272766,362.576385 873.924561,372.306824 
	C883.694153,377.692261 888.396973,385.431641 888.384216,396.544342 
	C888.301514,468.538116 888.294800,540.532043 888.361328,612.525757 
	C888.371460,623.528564 884.125183,631.474915 874.285767,636.989075 
	C856.415955,647.003662 838.934021,657.707886 821.170105,667.915283 
	C812.803284,672.723022 809.034180,679.599792 809.130615,689.236267 
	C809.348999,711.065491 809.235291,732.898560 809.179199,754.729797 
	C809.150146,766.041565 804.872375,774.546326 794.540039,780.554443 
	C754.363403,803.916626 714.552368,827.902771 675.036255,852.371399 
	C652.943298,866.051636 631.032471,880.034546 608.736023,893.373535 
	C598.617859,899.426758 587.518982,899.340637 577.223450,893.533325 
	C560.540344,884.122986 544.126465,874.229370 527.704285,864.364441 
	C518.599670,858.895203 509.818237,858.361938 500.444550,863.943909 
	C485.990540,872.551086 471.232391,880.645996 456.658325,889.053650 
	C446.180420,895.098328 435.653107,895.162659 425.384613,889.003052 
	C391.240601,868.521790 357.256744,847.773560 323.109863,827.297119 
	C297.820862,812.132385 272.525940,796.964783 246.923218,782.342102 
	C236.429993,776.348999 231.818314,767.901672 231.836258,756.260193 
	C231.870178,734.262207 231.784546,712.263794 231.877136,690.266113 
	C231.917435,680.688843 227.957138,673.965332 219.435516,669.249268 
	C200.197830,658.602722 181.145096,647.615417 162.157623,636.526184 
	C153.721313,631.599182 150.687485,623.527588 150.692261,614.078308 
	C150.719376,560.416260 150.744186,506.754211 150.754349,453.092163 
	C150.757751,435.093750 150.694427,417.095367 150.702759,399.096954 
	C150.707718,388.380951 155.041092,380.482330 164.765427,375.118591 
	C183.434753,364.821075 201.824982,354.014435 220.260330,343.297455 
	C227.864395,338.877014 231.080521,332.009644 231.022812,323.253296 
	C230.889954,303.089325 231.090286,282.922974 230.926987,262.759460 
	C230.829651,250.739731 235.169479,242.104889 246.144821,235.823242 
	C274.045197,219.854614 301.442810,203.007584 329.349182,186.317535 
M675.011780,608.566406 
	C670.469421,611.354858 665.915466,614.124512 661.386719,616.934937 
	C638.174744,631.340149 614.953918,645.731262 591.772522,660.185547 
	C586.251160,663.628296 580.671448,664.577271 574.803589,661.263855 
	C572.484314,659.954224 570.234985,658.514954 567.998901,657.065063 
	C557.161743,650.037781 557.486755,636.114563 568.452576,629.103333 
	C587.979492,616.618103 608.436768,605.746094 628.517822,594.223755 
	C633.956238,591.103333 636.961609,586.726807 636.969421,580.532104 
	C637.023376,537.539734 637.013489,494.547333 637.000427,451.554901 
	C636.998840,446.486511 634.730164,442.641327 630.448547,439.917297 
	C625.811890,436.967285 621.271301,433.864807 616.608643,430.957336 
	C589.039856,413.766388 560.831787,397.641998 533.019775,380.860931 
	C523.734070,375.258148 515.708923,375.425842 506.530975,380.979218 
	C468.194672,404.175781 429.705750,427.119110 391.656952,450.790192 
	C385.873108,454.388428 383.185638,459.320007 383.196747,466.115143 
	C383.263458,506.941284 383.248322,547.767578 383.197754,588.593872 
	C383.189545,595.218506 385.937531,599.970093 391.662872,603.324829 
	C428.311707,624.798645 464.899323,646.376953 501.539032,667.866333 
	C534.875305,687.418274 568.254639,706.896851 601.608704,726.418579 
	C607.181824,729.680542 612.608826,729.458496 618.127563,726.169128 
	C645.456177,709.880005 672.743164,693.518799 700.186768,677.425110 
	C743.870789,651.807617 787.641479,626.337158 831.440063,600.915894 
	C839.337830,596.331909 842.896667,589.733337 842.676270,580.750854 
	C842.410706,569.927002 842.181335,559.099731 842.142883,548.273254 
	C841.987976,504.614807 841.961365,460.955933 841.777832,417.297668 
	C841.724487,404.607880 832.266357,396.317963 820.429077,398.221130 
	C810.947693,399.745483 805.322571,407.072754 805.327454,418.130554 
	C805.341614,449.947357 805.534790,481.764679 805.392639,513.580627 
	C805.342529,524.793396 799.881165,533.028442 790.205566,538.850586 
	C751.956604,561.866821 713.811707,585.055969 675.011780,608.566406 
M600.856689,276.718292 
	C599.421692,275.872131 597.971619,275.050537 596.553955,274.176239 
	C546.221619,243.135803 495.780853,212.274551 444.946136,182.060257 
	C438.771881,178.390503 432.940094,178.165451 426.638580,181.857574 
	C380.502777,208.888794 334.622955,236.345764 288.952484,264.155212 
	C284.154907,267.076538 280.968597,271.063629 279.001892,276.222992 
	C275.466705,285.497131 277.671967,295.387238 284.673676,301.330200 
	C291.232544,306.897278 298.527527,307.063293 307.761200,301.575409 
	C334.395081,285.746155 360.991730,269.854218 387.580353,253.949005 
	C390.037292,252.479279 392.557983,251.325836 395.363892,250.695602 
	C403.419373,248.886215 410.182495,251.630646 417.050110,255.698044 
	C465.926056,284.645172 514.883118,313.454163 563.348450,343.088898 
	C578.271179,352.213593 593.264099,361.223450 608.210876,370.308990 
	C614.887573,374.367554 621.783997,374.987671 628.555176,370.955139 
	C634.834717,367.215363 637.191345,361.319702 637.083557,354.024902 
	C636.859497,338.864685 636.908875,323.698914 636.997803,308.536285 
	C637.038940,301.526001 634.177673,296.465668 628.104614,292.947937 
	C619.168457,287.771820 610.353882,282.385712 600.856689,276.718292 
M320.225464,345.779205 
	C283.363403,366.552094 246.576324,387.459991 209.583374,407.997040 
	C201.003235,412.760406 196.969467,419.200226 197.325150,428.940887 
	C198.243454,454.089081 197.693573,479.243469 197.443848,504.399872 
	C197.149384,534.061218 197.268082,563.727295 197.309189,593.391174 
	C197.325806,605.387451 205.372482,613.331116 216.627457,612.780945 
	C227.006363,612.273499 234.050919,604.591492 234.061615,593.496765 
	C234.090546,563.499512 233.976074,533.502014 234.041473,503.504913 
	C234.064362,493.005157 237.111404,483.722534 246.381500,477.610992 
	C250.827881,474.679565 255.475967,472.046936 260.089752,469.377625 
	C321.518829,433.837433 382.954926,398.309357 444.397064,362.791779 
	C458.186066,354.820862 458.617401,336.138336 445.053741,327.837250 
	C432.975922,320.445526 420.728058,313.332245 408.601685,306.019104 
	C402.879303,302.568054 397.173737,302.808960 391.541626,305.939087 
	C367.955139,319.047760 344.410645,332.231995 320.225464,345.779205 
M729.398376,254.174286 
	C689.692627,230.347610 649.977417,206.536819 610.287781,182.683334 
	C600.079956,176.548447 588.740906,178.905212 582.826660,188.531006 
	C576.880859,198.208282 579.875732,210.908096 589.802185,216.774750 
	C616.908142,232.794724 643.554138,249.559769 670.374939,266.043091 
	C679.434143,271.610657 683.444336,278.931183 683.419800,289.462646 
	C683.241394,365.942505 683.255432,442.422821 683.261597,518.903015 
	C683.262695,533.012573 694.568542,539.390991 706.751526,532.309387 
	C720.144958,524.524170 733.424438,516.531250 746.991760,509.061249 
	C755.394226,504.434967 758.948303,497.834229 758.861755,488.341614 
	C758.619995,461.850677 758.771118,435.356110 758.773499,408.862976 
	C758.777222,366.873871 758.752136,324.884705 758.822571,282.895721 
	C758.835938,274.940582 755.506287,269.289612 748.536987,265.455292 
	C742.264465,262.004303 736.195984,258.182648 729.398376,254.174286 
M406.583984,740.854309 
	C438.443390,759.959351 470.276764,779.108032 502.170471,798.155640 
	C527.487427,813.275452 552.880554,828.267395 578.234253,843.325684 
	C583.256287,846.308533 588.207947,846.615051 593.270691,843.338379 
	C631.878296,818.350708 671.500916,795.020447 710.922852,771.363098 
	C724.492249,763.219910 738.232361,755.352539 751.649780,746.967529 
	C761.946594,740.532593 764.816467,727.193359 758.526855,717.667786 
	C752.306946,708.248047 741.772705,706.580688 730.909363,713.128784 
	C693.674011,735.573059 656.424438,757.993835 619.141479,780.358948 
	C610.531677,785.523743 601.589294,785.504822 593.054688,780.416931 
	C554.420105,757.384766 515.918518,734.129700 477.301025,711.068726 
	C455.133087,697.830750 432.859497,684.768860 410.584808,671.710754 
	C400.395447,665.737366 390.070526,671.527039 389.995361,683.272522 
	C389.913269,696.102661 390.043793,708.934509 390.147552,721.765137 
	C390.197510,727.942139 393.108063,732.555542 398.276917,735.800476 
	C400.816345,737.394653 403.392426,738.930481 406.583984,740.854309 
M344.590546,511.370178 
	C344.596130,507.704437 344.817291,504.023895 344.566833,500.375732 
	C343.822662,489.535645 332.723206,483.789246 323.340302,489.189850 
	C312.658752,495.337860 302.041901,501.619965 291.140411,507.356323 
	C283.948547,511.140625 280.731750,516.921692 280.472137,524.621948 
	C280.287079,530.111145 280.590485,535.615112 280.586273,541.112366 
	C280.537048,605.594177 280.467468,670.075989 280.413330,734.557800 
	C280.406616,742.558289 283.768372,748.635193 290.780884,752.658264 
	C296.415527,755.890869 301.998138,759.214417 307.593140,762.515747 
	C347.622040,786.134460 387.635925,809.778748 427.686249,833.361145 
	C435.027496,837.683838 442.977844,836.214417 446.668671,830.112671 
	C450.810181,823.265808 448.293152,815.115051 440.690613,810.548767 
	C413.558350,794.252380 386.492249,777.844910 359.285065,761.674683 
	C349.274719,755.725159 344.492798,747.087036 344.638062,735.680298 
	C344.935028,712.361206 344.205475,689.052246 344.432953,665.725281 
	C344.931610,614.595337 344.585968,563.457214 344.590546,511.370178 
z"/>
<path fill="#000000" opacity="1.000000" stroke="none" 
	d="
M461.817078,565.744812 
	C459.255157,571.396423 456.833344,576.696228 454.487518,582.029419 
	C453.646210,583.942139 452.780060,585.636536 450.296295,585.654175 
	C443.308319,585.703918 436.320709,585.854431 429.332977,585.853760 
	C427.715973,585.853638 425.990540,585.781555 424.625458,584.549927 
	C424.138611,582.194336 425.531616,580.356445 426.396423,578.448303 
	C445.570068,536.143005 464.816071,493.870605 483.952667,451.548676 
	C485.245758,448.688995 486.943726,447.390717 490.046143,447.670319 
	C491.862823,447.834015 493.707886,447.695984 495.539917,447.673706 
	C507.149658,447.532562 507.068207,447.565857 511.599030,458.059235 
	C528.622437,497.485504 545.713318,536.882690 562.742493,576.306519 
	C563.904175,578.995911 565.585144,581.570557 565.384460,585.158630 
	C559.826904,586.583130 554.106262,585.149292 548.627686,586.017517 
	C540.066833,587.374329 536.203308,583.756592 533.004883,575.821472 
	C522.116760,548.808838 510.274109,522.180908 498.781738,495.412109 
	C498.133545,493.902344 497.357880,492.447296 495.973175,489.585358 
	C484.315399,515.593140 473.151245,540.499695 461.817078,565.744812 
z"/>
<path fill="#000000" opacity="1.000000" stroke="none" 
	d="
M589.020142,585.430481 
	C584.871399,585.494995 581.200745,585.408936 577.554871,585.670105 
	C574.277893,585.904907 572.910095,584.520996 573.015198,581.371582 
	C573.037415,580.706665 573.005920,580.039978 573.006042,579.374146 
	C573.011292,538.254761 573.007019,497.135315 573.031921,456.015900 
	C573.036987,447.721954 573.088196,447.721222 581.259888,447.717316 
	C585.921204,447.715088 590.602783,447.986725 595.238220,447.640076 
	C600.010742,447.283173 601.225525,449.391937 601.209839,453.766266 
	C601.108643,482.066681 601.188538,510.367737 601.194031,538.668579 
	C601.196533,551.653503 601.175781,564.638489 601.144287,577.623413 
	C601.125488,585.392700 601.106995,585.393188 593.504700,585.425293 
	C592.172791,585.430969 590.840942,585.429382 589.020142,585.430481 
z"/>
</svg>